<svg width="183" height="92" viewBox="0 0 183 92" fill="none" xmlns="http://www.w3.org/2000/svg">
<path d="M67.619 4.82443C67.619 5.25217 67.5662 5.62717 67.4608 5.94943C67.3553 6.26584 67.2088 6.54122 67.0213 6.7756C66.8397 7.00997 66.6229 7.19747 66.3826 7.3381C66.1365 7.47872 65.8846 7.59005 65.6209 7.66036V7.69552C65.9432 7.75411 66.242 7.86544 66.5233 8.03536C66.8045 8.19943 67.0447 8.41036 67.2557 8.65645C67.4607 8.9084 67.6307 9.20137 67.7537 9.54121C67.8826 9.88105 67.9412 10.256 67.9412 10.6603C67.9412 11.1467 67.8592 11.592 67.6951 11.9963C67.5252 12.4006 67.2674 12.7521 66.9158 13.051C66.5643 13.3498 66.119 13.5783 65.5858 13.7482C65.0467 13.9123 64.4139 14.0002 63.6756 14.0002H61.1561V1.67797H63.5349C64.2615 1.67797 64.8826 1.75414 65.3983 1.90063C65.9139 2.05297 66.3416 2.26391 66.6756 2.5393C67.0096 2.80883 67.2498 3.14281 67.3963 3.52954C67.5428 3.91625 67.619 4.34399 67.619 4.82446V4.82443ZM66.0486 4.8772C66.0486 4.30298 65.8494 3.83423 65.4451 3.46508C65.0349 3.09593 64.4021 2.9143 63.535 2.9143H62.7088V7.1623H63.5174C64.3495 7.1623 64.9764 6.95722 65.4041 6.55292C65.8377 6.14863 66.0486 5.59198 66.0486 4.87713L66.0486 4.8772ZM66.283 10.5489C66.283 9.88681 66.0662 9.35947 65.6326 8.97272C65.199 8.58601 64.5721 8.39264 63.7635 8.39264H62.7088V12.711H63.6756C64.5897 12.711 65.2576 12.5294 65.6677 12.1661C66.0778 11.8028 66.283 11.2637 66.283 10.5489H66.283ZM75.8513 14.0001H74.5271V13.0333H74.492C74.4568 13.1036 74.3806 13.2091 74.2635 13.3439C74.1404 13.4786 73.9881 13.6134 73.8064 13.7365C73.6189 13.8595 73.3963 13.9708 73.1385 14.0704C72.8748 14.1642 72.5818 14.2111 72.2596 14.2111C71.8787 14.2111 71.5389 14.1525 71.2342 14.0411C70.9295 13.9298 70.6717 13.7482 70.4608 13.4962C70.244 13.2501 70.0799 12.922 69.9686 12.5236C69.8514 12.1251 69.7986 11.6329 69.7986 11.0529V5.42786H71.2459V10.9474C71.2459 11.6564 71.3572 12.1662 71.5916 12.4708C71.826 12.7755 72.1834 12.9278 72.6697 12.9278C73.0857 12.9278 73.4373 12.8224 73.7244 12.6114C74.0115 12.4064 74.2342 12.2013 74.4041 11.9962V5.42785H75.8513V14.0001ZM82.736 14V8.4805C82.736 7.75393 82.6189 7.23245 82.3728 6.916C82.1325 6.60545 81.7575 6.44725 81.2595 6.44725C80.8317 6.44725 80.4743 6.55271 80.1872 6.76951C79.9001 6.98044 79.6716 7.19138 79.5075 7.3906V13.9999H78.0661V5.4277H79.3845V6.39449H79.4196C79.4548 6.32419 79.531 6.21871 79.654 6.07808C79.7712 5.94332 79.9236 5.81441 80.1169 5.6855C80.3044 5.56246 80.5329 5.45113 80.7907 5.35738C81.0544 5.26363 81.3532 5.21675 81.6872 5.21675C82.0681 5.21675 82.4138 5.26949 82.7185 5.38667C83.029 5.498 83.2927 5.67964 83.5095 5.92574C83.7204 6.1777 83.8904 6.50582 84.0075 6.8984C84.1247 7.29683 84.1833 7.78903 84.1833 8.37497V14L82.736 14ZM85.9529 9.83987C85.9529 8.96683 86.0642 8.24027 86.2927 7.66022C86.5154 7.07429 86.8083 6.60555 87.1658 6.24811C87.5232 5.89069 87.9275 5.63874 88.3786 5.49225C88.8298 5.33991 89.2868 5.26958 89.738 5.26958C90.0134 5.26958 90.2478 5.28716 90.4529 5.32817C90.6521 5.37505 90.822 5.42193 90.9509 5.48052V1.37891L92.3982 1.21484V13.9999H91.0739V13.0859H91.0388C91.0036 13.1562 90.9392 13.2558 90.8454 13.3788C90.7458 13.5077 90.6169 13.6308 90.4528 13.7538C90.2829 13.8827 90.0778 13.9882 89.8259 14.0761C89.5739 14.164 89.2868 14.2109 88.9528 14.2109C88.5485 14.2109 88.1618 14.1288 87.7985 13.9706C87.4353 13.8124 87.1189 13.5546 86.8435 13.203C86.5739 12.8515 86.3513 12.4003 86.1931 11.8437C86.0349 11.2929 85.9528 10.6249 85.9528 9.83981L85.9529 9.83987ZM89.3454 12.9277C89.5681 12.9277 89.7731 12.8984 89.9489 12.834C90.1305 12.7754 90.2829 12.7051 90.4118 12.6113C90.5465 12.5234 90.6579 12.4297 90.7458 12.3359C90.8337 12.2422 90.904 12.1601 90.9509 12.084V6.80471C90.8219 6.71683 90.6696 6.64651 90.4938 6.58792C90.3239 6.52933 90.1071 6.50003 89.8434 6.50003C89.5094 6.50003 89.1989 6.55277 88.9059 6.66995C88.613 6.78128 88.361 6.96878 88.1501 7.23245C87.9333 7.49027 87.7633 7.83011 87.6403 8.25199C87.5173 8.668 87.4528 9.17777 87.4528 9.78124C87.4528 10.3789 87.5055 10.8769 87.6051 11.2754C87.7048 11.6738 87.8454 11.9961 88.0212 12.2363C88.2028 12.4824 88.402 12.6582 88.6305 12.7636C88.8532 12.875 89.0934 12.9277 89.3454 12.9277H89.3454ZM100.109 8.32226C100.109 8.6914 100.097 9.00781 100.074 9.27734C100.045 9.54101 100.021 9.77539 100.004 9.98047H95.6266C95.6734 10.9883 95.8903 11.7325 96.277 12.2129C96.6637 12.6875 97.2204 12.9278 97.947 12.9278C98.1989 12.9278 98.4216 12.8985 98.6267 12.834C98.8259 12.7754 99.0017 12.7051 99.154 12.6231C99.3006 12.541 99.4235 12.4531 99.529 12.3711C99.6286 12.2891 99.7048 12.2246 99.7517 12.1777L100.285 13.1914C100.226 13.2559 100.138 13.3379 100.015 13.4551C99.8982 13.5664 99.7399 13.6777 99.5349 13.7891C99.3356 13.9063 99.0837 14.0059 98.7849 14.0879C98.486 14.1699 98.1403 14.2109 97.7302 14.2109C97.197 14.2109 96.7106 14.1231 96.2771 13.9414C95.8435 13.7656 95.4743 13.4844 95.1696 13.1094C94.8649 12.7402 94.6364 12.2598 94.4665 11.6856C94.2966 11.1055 94.2146 10.4141 94.2146 9.6055C94.2146 8.84378 94.3025 8.18753 94.4782 7.6309C94.6482 7.08011 94.8825 6.62308 95.1814 6.26566C95.4802 5.90824 95.8259 5.64457 96.2185 5.47465C96.611 5.29886 97.0329 5.21683 97.4841 5.21683C98.3044 5.21683 98.9489 5.47465 99.4119 5.99027C99.8748 6.5059 100.109 7.28519 100.109 8.32232L100.109 8.32226ZM97.3962 6.39452C96.8806 6.39452 96.4705 6.60545 96.1599 7.0332C95.8552 7.46094 95.6736 8.08202 95.6267 8.89064H98.7497C98.7617 8.83205 98.7731 8.74415 98.779 8.63282C98.785 8.52149 98.785 8.39845 98.785 8.26954C98.785 7.67188 98.6678 7.20899 98.4275 6.88087C98.1932 6.55274 97.8475 6.39454 97.3963 6.39454L97.3962 6.39452ZM105.728 7.16212C105.635 7.05079 105.465 6.9043 105.213 6.72267C104.961 6.53517 104.638 6.44728 104.228 6.44728C103.847 6.44728 103.56 6.53516 103.355 6.71095C103.156 6.89258 103.051 7.10353 103.051 7.35548C103.051 7.67774 103.144 7.94141 103.332 8.15236C103.513 8.35744 103.795 8.5801 104.176 8.82032L104.715 9.14258C105.295 9.48829 105.752 9.85742 106.086 10.2559C106.42 10.6543 106.59 11.1699 106.59 11.8027C106.59 12.4765 106.349 13.0507 105.881 13.5136C105.412 13.9765 104.738 14.2108 103.853 14.2108C103.513 14.2108 103.209 14.1757 102.945 14.1054C102.681 14.0292 102.453 13.9472 102.26 13.8534C102.06 13.7597 101.896 13.6542 101.767 13.5429C101.638 13.4257 101.527 13.3261 101.445 13.2265L102.142 12.0839C102.213 12.16 102.301 12.2421 102.4 12.3358C102.506 12.4296 102.623 12.5233 102.769 12.6112C102.91 12.705 103.068 12.7753 103.25 12.8339C103.426 12.8983 103.636 12.9276 103.871 12.9276C104.299 12.9276 104.633 12.828 104.855 12.6405C105.084 12.4471 105.195 12.2186 105.195 11.9432C105.195 11.7382 105.166 11.5683 105.113 11.4159C105.06 11.2694 104.978 11.1347 104.873 11.0175C104.767 10.8944 104.638 10.7831 104.48 10.6776C104.328 10.5722 104.146 10.4491 103.947 10.3202L103.408 9.98038C102.875 9.63467 102.453 9.27139 102.154 8.89054C101.849 8.50967 101.697 8.02336 101.697 7.4257C101.697 7.10344 101.762 6.81046 101.885 6.54094C102.008 6.27727 102.183 6.04289 102.412 5.84953C102.635 5.65031 102.898 5.49796 103.203 5.38664C103.508 5.26945 103.83 5.21672 104.176 5.21672C104.51 5.21672 104.797 5.24602 105.031 5.31047C105.271 5.38079 105.476 5.46281 105.652 5.56243C105.822 5.66204 105.963 5.76751 106.08 5.86711C106.191 5.96672 106.285 6.05461 106.355 6.12493L105.728 7.16212ZM112.783 13.9999V8.48038C112.783 7.77725 112.678 7.27334 112.478 6.96283C112.273 6.65228 111.951 6.49994 111.494 6.49994C111.26 6.49994 111.049 6.52924 110.861 6.58783C110.68 6.64642 110.515 6.72259 110.369 6.81049C110.228 6.89838 110.105 6.99799 109.994 7.10345C109.889 7.21478 109.801 7.30853 109.73 7.39057V13.9999H108.283V5.42767H109.601V6.39446H109.642C109.701 6.29485 109.789 6.17767 109.906 6.04289C110.023 5.90813 110.176 5.77922 110.351 5.65031C110.533 5.52727 110.738 5.4218 110.978 5.33977C111.218 5.25773 111.482 5.21672 111.781 5.21672C112.76 5.21672 113.445 5.59759 113.849 6.35344C113.931 6.23624 114.049 6.10735 114.189 5.97257C114.336 5.83781 114.5 5.7089 114.693 5.59757C114.881 5.48624 115.097 5.39249 115.332 5.32219C115.572 5.25188 115.836 5.21672 116.117 5.21672C117.857 5.21672 118.724 6.22455 118.724 8.25182V13.9998H117.277V8.48027C117.277 7.77715 117.154 7.27324 116.902 6.96273C116.656 6.65218 116.287 6.49984 115.795 6.49984C115.39 6.49984 115.056 6.59945 114.787 6.7928C114.523 6.99202 114.306 7.17952 114.154 7.3553C114.177 7.48421 114.195 7.62484 114.207 7.77718C114.219 7.92367 114.224 8.08186 114.224 8.25179V13.9998L112.783 13.9999ZM122.328 13.9998H120.886V5.42759H122.328V13.9998ZM121.613 3.35909C121.32 3.35909 121.08 3.26534 120.904 3.07198C120.722 2.88448 120.635 2.63252 120.635 2.32198C120.635 2.02315 120.722 1.78291 120.904 1.58956C121.08 1.40206 121.32 1.30244 121.613 1.30244C121.9 1.30244 122.135 1.40206 122.316 1.58956C122.492 1.78292 122.58 2.02315 122.58 2.32198C122.58 2.63252 122.492 2.88448 122.316 3.07198C122.135 3.26534 121.9 3.35909 121.613 3.35909ZM129.218 13.9998V8.48024C129.218 7.75367 129.101 7.2322 128.855 6.91574C128.609 6.6052 128.24 6.44699 127.736 6.44699C127.308 6.44699 126.957 6.55246 126.67 6.76925C126.383 6.98018 126.154 7.19113 125.99 7.39035V13.9996H124.543V5.42744H125.867V6.39424H125.902C125.937 6.32394 126.013 6.21845 126.131 6.07783C126.254 5.94307 126.406 5.81416 126.599 5.68525C126.787 5.5622 127.015 5.45087 127.273 5.35712C127.537 5.26337 127.836 5.2165 128.17 5.2165C128.55 5.2165 128.896 5.26924 129.201 5.38642C129.511 5.49775 129.775 5.67938 129.986 5.92549C130.203 6.17744 130.367 6.50557 130.49 6.89815C130.607 7.29658 130.666 7.78877 130.666 8.37472V13.9997L129.218 13.9998ZM134.275 13.9997H132.828V5.42752H134.275V13.9997ZM133.56 3.35902C133.261 3.35902 133.021 3.26527 132.845 3.0719C132.664 2.8844 132.576 2.63245 132.576 2.3219C132.576 2.02307 132.664 1.78283 132.845 1.58948C133.021 1.40198 133.261 1.30237 133.56 1.30237C133.841 1.30237 134.076 1.40198 134.257 1.58948C134.433 1.78285 134.521 2.02307 134.521 2.3219C134.521 2.63245 134.433 2.8844 134.257 3.0719C134.076 3.26527 133.841 3.35902 133.56 3.35902ZM140.181 7.16182C140.088 7.05049 139.912 6.904 139.66 6.72236C139.414 6.53486 139.086 6.44698 138.681 6.44698C138.3 6.44698 138.007 6.53486 137.808 6.71065C137.603 6.89228 137.504 7.10323 137.504 7.35518C137.504 7.67744 137.597 7.94111 137.779 8.15206C137.966 8.35714 138.248 8.5798 138.629 8.82002L139.162 9.14228C139.748 9.48799 140.205 9.85712 140.539 10.2556C140.873 10.654 141.037 11.1696 141.037 11.8024C141.037 12.4762 140.802 13.0504 140.334 13.5133C139.859 13.9762 139.185 14.2105 138.306 14.2105C137.961 14.2105 137.656 14.1754 137.398 14.1051C137.134 14.0289 136.906 13.9469 136.707 13.8531C136.513 13.7594 136.349 13.6539 136.22 13.5426C136.086 13.4254 135.98 13.3258 135.898 13.2262L136.595 12.0836C136.666 12.1597 136.753 12.2418 136.853 12.3355C136.953 12.4293 137.076 12.523 137.216 12.6109C137.357 12.7047 137.521 12.775 137.697 12.8336C137.878 12.898 138.084 12.9273 138.324 12.9273C138.752 12.9273 139.08 12.8277 139.302 12.6402C139.531 12.4468 139.642 12.2183 139.642 11.9429C139.642 11.7379 139.619 11.568 139.566 11.4156C139.513 11.2691 139.431 11.1344 139.326 11.0172C139.214 10.8941 139.085 10.7828 138.927 10.6773C138.775 10.5719 138.599 10.4488 138.394 10.3199L137.861 9.98008C137.322 9.63438 136.906 9.27109 136.601 8.89024C136.296 8.50937 136.144 8.02306 136.144 7.4254C136.144 7.10314 136.209 6.81016 136.332 6.54064C136.46 6.27697 136.636 6.04259 136.859 5.84923C137.087 5.65001 137.351 5.49766 137.656 5.38634C137.96 5.26915 138.283 5.21642 138.628 5.21642C138.962 5.21642 139.244 5.24572 139.484 5.31017C139.724 5.38049 139.929 5.46251 140.099 5.56213C140.275 5.66174 140.416 5.76721 140.527 5.86681C140.644 5.96643 140.732 6.05431 140.802 6.12463L140.181 7.16182ZM146.392 6.60509H144.517V11.3512C144.517 11.9606 144.593 12.3766 144.752 12.5934C144.904 12.8161 145.168 12.9274 145.537 12.9274C145.748 12.9274 145.935 12.8981 146.087 12.8337C146.24 12.7751 146.357 12.7223 146.427 12.6755L146.621 13.8356C146.568 13.8825 146.421 13.9587 146.199 14.0583C145.97 14.1579 145.666 14.2106 145.285 14.2106C144.546 14.2106 143.996 14.0055 143.627 13.5954C143.257 13.1852 143.07 12.5055 143.07 11.5504V6.60508H142.039V5.64415L143.07 5.42735L143.234 3.03665H144.517V5.42735H146.574L146.392 6.60509ZM153.406 8.3219C153.406 8.69104 153.394 9.00745 153.371 9.27698C153.347 9.54065 153.324 9.77503 153.3 9.98011H148.923C148.976 10.9879 149.193 11.7321 149.58 12.2126C149.966 12.6872 150.523 12.9274 151.244 12.9274C151.496 12.9274 151.724 12.8981 151.923 12.8337C152.128 12.7751 152.304 12.7047 152.451 12.6227C152.603 12.5407 152.726 12.4528 152.826 12.3707C152.925 12.2887 153.002 12.2243 153.048 12.1774L153.587 13.1911C153.529 13.2555 153.435 13.3375 153.318 13.4547C153.201 13.5661 153.037 13.6774 152.837 13.7887C152.632 13.9059 152.386 14.0055 152.087 14.0875C151.789 14.1696 151.437 14.2106 151.033 14.2106C150.5 14.2106 150.013 14.1227 149.58 13.9411C149.146 13.7653 148.777 13.484 148.472 13.109C148.168 12.7399 147.933 12.2594 147.769 11.6852C147.599 11.1051 147.517 10.4137 147.517 9.60514C147.517 8.84343 147.605 8.18717 147.775 7.63054C147.951 7.07975 148.185 6.62272 148.478 6.2653C148.777 5.90788 149.123 5.64421 149.515 5.47429C149.908 5.2985 150.33 5.21647 150.781 5.21647C151.601 5.21647 152.246 5.47429 152.709 5.98991C153.177 6.50554 153.406 7.28483 153.406 8.32196L153.406 8.3219ZM150.693 6.39416C150.183 6.39416 149.773 6.60509 149.463 7.03283C149.152 7.46057 148.976 8.08167 148.923 8.89029H152.052C152.064 8.8317 152.07 8.74379 152.076 8.63246C152.082 8.52113 152.088 8.39809 152.088 8.26918C152.088 7.67152 151.965 7.20863 151.73 6.88051C151.49 6.55238 151.144 6.39418 150.693 6.39418L150.693 6.39416ZM159.101 6.69301C159.066 6.66956 158.99 6.64027 158.867 6.60512C158.75 6.56996 158.592 6.55238 158.387 6.55238C157.935 6.55238 157.584 6.67543 157.326 6.91567C157.068 7.16176 156.887 7.42543 156.781 7.71254V13.9996H155.334V5.42744H156.658V6.5876H156.693C156.752 6.42353 156.828 6.25948 156.922 6.09542C157.021 5.93722 157.138 5.79074 157.279 5.66768C157.426 5.54464 157.595 5.44502 157.789 5.37472C157.988 5.30441 158.222 5.26925 158.492 5.26925C158.697 5.26925 158.861 5.28683 158.984 5.32199C159.107 5.35715 159.207 5.38645 159.277 5.40988L159.101 6.69301ZM161.972 13.9998H160.531V5.42758H161.972V13.9998ZM161.263 3.35908C160.965 3.35908 160.724 3.26533 160.549 3.07196C160.367 2.88446 160.279 2.63251 160.279 2.32196C160.279 2.02313 160.367 1.78289 160.549 1.58954C160.724 1.40204 160.965 1.30243 161.263 1.30243C161.545 1.30243 161.779 1.40204 161.955 1.58954C162.137 1.78291 162.224 2.02313 162.224 2.32196C162.224 2.63251 162.137 2.88446 161.955 3.07196C161.779 3.26533 161.545 3.35908 161.263 3.35908ZM170.187 13.9998H168.863V13.033H168.828C168.793 13.1033 168.716 13.2088 168.599 13.3435C168.476 13.4783 168.33 13.6131 168.142 13.7361C167.961 13.8592 167.732 13.9705 167.474 14.0701C167.211 14.1638 166.918 14.2107 166.595 14.2107C166.22 14.2107 165.875 14.1521 165.57 14.0408C165.271 13.9295 165.007 13.7478 164.797 13.4959C164.58 13.2498 164.416 12.9217 164.304 12.5232C164.193 12.1248 164.134 11.6326 164.134 11.0525V5.42752H165.582V10.9471C165.582 11.6561 165.699 12.1658 165.927 12.4705C166.162 12.7751 166.519 12.9275 167.011 12.9275C167.427 12.9275 167.779 12.822 168.06 12.6111C168.347 12.406 168.576 12.2009 168.74 11.9959V5.4275H170.187L170.187 13.9998ZM176.896 13.9997V8.48015C176.896 7.77703 176.797 7.27312 176.592 6.9626C176.392 6.65206 176.064 6.49972 175.613 6.49972C175.373 6.49972 175.162 6.52902 174.98 6.5876C174.793 6.64619 174.629 6.72236 174.488 6.81026C174.347 6.89815 174.218 6.99777 174.113 7.10323C174.008 7.21456 173.914 7.30831 173.843 7.39035V13.9996H172.402V5.42744H173.72V6.39424H173.756C173.814 6.29462 173.908 6.17744 174.025 6.04267C174.142 5.90791 174.289 5.779 174.47 5.65009C174.646 5.52704 174.857 5.42158 175.097 5.33954C175.332 5.25751 175.601 5.2165 175.9 5.2165C176.873 5.2165 177.564 5.59736 177.968 6.35321C178.05 6.23602 178.168 6.10712 178.308 5.97235C178.449 5.83759 178.619 5.70868 178.806 5.59735C179 5.48602 179.211 5.39227 179.451 5.32196C179.691 5.25166 179.949 5.2165 180.236 5.2165C181.97 5.2165 182.843 6.22432 182.843 8.2516V13.9996H181.396V8.48005C181.396 7.77692 181.273 7.27301 181.021 6.9625C180.769 6.65195 180.4 6.49961 179.914 6.49961C179.509 6.49961 179.176 6.59923 178.906 6.79258C178.636 6.9918 178.426 7.1793 178.273 7.35508C178.297 7.48399 178.314 7.62462 178.326 7.77696C178.338 7.92345 178.343 8.08164 178.343 8.25157V13.9996L176.896 13.9997ZM64.4605 24.605H62.7085V31.9996H61.2671V24.605H60.23V23.6441L61.2671 23.4449V21.734C61.2671 21.2711 61.3316 20.8726 61.4605 20.5387C61.5952 20.2047 61.7651 19.9293 61.982 19.7125C62.1929 19.5016 62.4448 19.3433 62.7261 19.2496C63.0132 19.1558 63.3179 19.109 63.6401 19.109C63.9507 19.109 64.2085 19.15 64.4253 19.232C64.6421 19.3199 64.7827 19.3844 64.853 19.4312L64.5484 20.6266C64.4781 20.5797 64.3784 20.5269 64.2437 20.4742C64.1148 20.4215 63.9566 20.3922 63.7632 20.3922C63.4175 20.3922 63.1597 20.5035 62.9781 20.7144C62.8023 20.9312 62.7085 21.3238 62.7085 21.8922V23.4273H64.6422L64.4605 24.605ZM71.8843 31.9995H70.5659V31.0327H70.5308C70.4956 31.103 70.4136 31.2085 70.2964 31.3432C70.1792 31.478 70.0268 31.6128 69.8452 31.7358C69.6577 31.8589 69.4351 31.9702 69.1714 32.0698C68.9136 32.1636 68.6206 32.2104 68.2983 32.2104C67.9175 32.2104 67.5776 32.1518 67.2729 32.0405C66.9682 31.9292 66.7104 31.7475 66.4936 31.4956C66.2827 31.2495 66.1186 30.9214 66.0073 30.5229C65.8901 30.1245 65.8374 29.6323 65.8374 29.0522V23.4272H67.2788V28.9468C67.2788 29.6558 67.396 30.1655 67.6304 30.4702C67.8589 30.7749 68.2222 30.9272 68.7085 30.9272C69.1245 30.9272 69.4761 30.8217 69.7632 30.6108C70.0444 30.4057 70.2729 30.2006 70.4429 29.9956V23.4272H71.8843L71.8843 31.9995ZM68.3335 20.9663C68.3335 21.2358 68.2514 21.4585 68.0815 21.6284C67.9175 21.7925 67.7124 21.8745 67.478 21.8745C67.2378 21.8745 67.0386 21.7925 66.8686 21.6284C66.7046 21.4585 66.6226 21.2358 66.6226 20.9663C66.6226 20.6909 66.7046 20.4683 66.8686 20.3042C67.0386 20.1401 67.2378 20.0522 67.478 20.0522C67.7124 20.0522 67.9175 20.1401 68.0815 20.3042C68.2514 20.4683 68.3335 20.6909 68.3335 20.9663ZM71.0815 20.9663C71.0815 21.2358 70.9994 21.4585 70.8354 21.6284C70.6655 21.7925 70.4663 21.8745 70.226 21.8745C69.9858 21.8745 69.7866 21.7925 69.6166 21.6284C69.4526 21.4585 69.3705 21.2358 69.3705 20.9663C69.3705 20.6909 69.4526 20.4683 69.6166 20.3042C69.7866 20.1401 69.9858 20.0522 70.226 20.0522C70.4663 20.0522 70.6655 20.1401 70.8354 20.3042C70.9994 20.4683 71.0815 20.6909 71.0815 20.9663ZM77.8666 24.6929C77.8314 24.6695 77.7553 24.6402 77.6322 24.605C77.515 24.5699 77.3568 24.5523 77.1517 24.5523C76.7006 24.5523 76.3431 24.6753 76.0912 24.9156C75.8334 25.1617 75.6517 25.4253 75.5463 25.7124V31.9995H74.099V23.4273H75.4174V24.5875H75.4584C75.517 24.4234 75.5932 24.2594 75.6869 24.0953C75.7807 23.9371 75.9037 23.7906 76.0443 23.6676C76.1908 23.5445 76.3549 23.4449 76.5541 23.3746C76.7533 23.3043 76.9818 23.2692 77.2572 23.2692C77.4623 23.2692 77.6263 23.2867 77.7494 23.3219C77.8783 23.3571 77.972 23.3863 78.0424 23.4098L77.8666 24.6929ZM89.433 22.8238C89.433 23.2516 89.3803 23.6266 89.2748 23.9488C89.1635 24.2653 89.017 24.5406 88.8354 24.775C88.6479 25.0094 88.4369 25.1969 88.1909 25.3375C87.9506 25.4781 87.6928 25.5895 87.435 25.6598V25.6949C87.7572 25.7535 88.0561 25.8649 88.3373 26.0348C88.6127 26.1988 88.8588 26.4098 89.0698 26.6559C89.2748 26.9078 89.4448 27.2008 89.5678 27.5406C89.6908 27.8805 89.7553 28.2555 89.7553 28.6598C89.7553 29.1461 89.6733 29.5914 89.5033 29.9957C89.3393 30.4 89.0815 30.7516 88.7299 31.0504C88.3784 31.3492 87.933 31.5777 87.3998 31.7476C86.8608 31.9117 86.228 31.9996 85.4897 31.9996H82.9702V19.6774H85.3432C86.0697 19.6774 86.6908 19.7536 87.2123 19.9C87.728 20.0524 88.1557 20.2633 88.4838 20.5387C88.8178 20.8083 89.058 21.1422 89.2104 21.529C89.3569 21.9157 89.433 22.3434 89.433 22.8239V22.8238ZM87.8627 22.8766C87.8627 22.3024 87.6576 21.8336 87.2533 21.4645C86.849 21.0953 86.2162 20.9137 85.3432 20.9137H84.5229V25.1617H85.3257C86.1577 25.1617 86.7905 24.9566 87.2182 24.5523C87.646 24.148 87.8627 23.5914 87.8627 22.8765L87.8627 22.8766ZM88.0913 28.5483C88.0913 27.8862 87.8745 27.3589 87.4409 26.9721C87.0073 26.5854 86.3862 26.392 85.5776 26.392H84.5229V30.7104H85.4897C86.4038 30.7104 87.0659 30.5288 87.476 30.1655C87.8861 29.8022 88.0912 29.2631 88.0912 28.5483H88.0913ZM93.1069 31.9995H91.6655V23.4273H93.1069V31.9995ZM92.3979 21.3588C92.0991 21.3588 91.8589 21.2651 91.6831 21.0717C91.5015 20.8842 91.4136 20.6323 91.4136 20.3217C91.4136 20.0229 91.5014 19.7826 91.6831 19.5893C91.8589 19.4018 92.0991 19.3022 92.3979 19.3022C92.6792 19.3022 92.9136 19.4018 93.0893 19.5893C93.271 19.7827 93.3589 20.0229 93.3589 20.3217C93.3589 20.6323 93.271 20.8842 93.0893 21.0717C92.9136 21.2651 92.6792 21.3588 92.3979 21.3588ZM96.7514 29.9955C96.7514 30.3529 96.7982 30.6049 96.9037 30.7455C97.0033 30.892 97.1791 30.9623 97.4311 30.9623C97.5599 30.9623 97.6713 30.9506 97.7592 30.9272C97.8471 30.9037 97.9174 30.8803 97.9643 30.851L98.0873 31.9233C98.0169 31.9584 97.8881 32.0053 97.6947 32.0697C97.5072 32.1283 97.2494 32.1576 96.9271 32.1576C96.4408 32.1576 96.0482 32.0053 95.7494 31.7123C95.4564 31.4135 95.3041 30.8861 95.3041 30.1244V19.3783L96.7513 19.2142L96.7514 29.9955ZM99.0013 27.8392C99.0013 26.9661 99.1126 26.2396 99.3412 25.6595C99.5638 25.0736 99.8568 24.6049 100.214 24.2474C100.572 23.89 100.976 23.638 101.427 23.4916C101.878 23.3392 102.329 23.2689 102.787 23.2689C103.056 23.2689 103.296 23.2865 103.495 23.3275C103.701 23.3744 103.865 23.4212 103.999 23.4798V19.3782L105.447 19.2142V31.9993H104.122V31.0852H104.087C104.052 31.1555 103.988 31.2551 103.894 31.3782C103.794 31.5071 103.665 31.6301 103.496 31.7532C103.331 31.8821 103.121 31.9875 102.874 32.0754C102.622 32.1633 102.33 32.2102 101.996 32.2102C101.597 32.2102 101.21 32.1281 100.847 31.9699C100.484 31.8117 100.167 31.5539 99.892 31.2024C99.6166 30.8508 99.3998 30.3996 99.2416 29.843C99.0834 29.2922 99.0014 28.6242 99.0014 27.8391L99.0013 27.8392ZM102.394 30.927C102.617 30.927 102.822 30.8977 102.997 30.8333C103.179 30.7747 103.331 30.7044 103.46 30.6106C103.595 30.5227 103.706 30.429 103.794 30.3352C103.882 30.2415 103.953 30.1594 103.999 30.0833V24.804C103.865 24.7161 103.718 24.6458 103.542 24.5872C103.372 24.5286 103.156 24.4993 102.892 24.4993C102.558 24.4993 102.247 24.5521 101.954 24.6693C101.662 24.7806 101.41 24.9681 101.199 25.2318C100.982 25.4896 100.812 25.8294 100.689 26.2513C100.56 26.6673 100.501 27.1771 100.501 27.7806C100.501 28.3782 100.548 28.8763 100.654 29.2747C100.753 29.6731 100.894 29.9954 101.07 30.2356C101.251 30.4817 101.451 30.6575 101.679 30.763C101.902 30.8743 102.142 30.927 102.394 30.927ZM113.656 31.9993H112.331V31.0325H112.296C112.261 31.1028 112.185 31.2083 112.068 31.343C111.951 31.4778 111.792 31.6126 111.611 31.7356C111.429 31.8587 111.206 31.97 110.943 32.0696C110.679 32.1634 110.386 32.2102 110.07 32.2102C109.683 32.2102 109.343 32.1516 109.039 32.0403C108.74 31.929 108.476 31.7473 108.265 31.4954C108.048 31.2493 107.884 30.9212 107.773 30.5227C107.662 30.1243 107.603 29.6321 107.603 29.052V23.427H109.05V28.9466C109.05 29.6556 109.167 30.1653 109.396 30.47C109.63 30.7747 109.988 30.927 110.48 30.927C110.896 30.927 111.247 30.8215 111.529 30.6106C111.816 30.4055 112.044 30.2004 112.208 29.9954V23.427H113.656V31.9993ZM120.546 31.9992V26.4797C120.546 25.7531 120.423 25.2316 120.177 24.9152C119.937 24.6046 119.562 24.4464 119.064 24.4464C118.636 24.4464 118.279 24.5519 117.992 24.7687C117.705 24.9796 117.482 25.1905 117.318 25.3898V31.9991H115.871V23.4269H117.189V24.3937H117.224C117.259 24.3233 117.335 24.2179 117.458 24.0772C117.576 23.9425 117.728 23.8136 117.921 23.6847C118.109 23.5616 118.337 23.4503 118.601 23.3565C118.859 23.2628 119.158 23.2159 119.492 23.2159C119.872 23.2159 120.218 23.2687 120.529 23.3858C120.839 23.4972 121.097 23.6788 121.314 23.9249C121.525 24.1769 121.695 24.505 121.812 24.8976C121.929 25.296 121.988 25.7882 121.988 26.3741V31.9991L120.546 31.9992ZM130.29 24.5519H129.218C129.494 25.0031 129.634 25.5187 129.634 26.087C129.634 26.5382 129.558 26.9484 129.406 27.3117C129.259 27.6749 129.048 27.9796 128.785 28.2316C128.515 28.4777 128.199 28.671 127.835 28.7999C127.472 28.9347 127.085 28.9992 126.669 28.9992H126.435C126.365 28.9992 126.288 28.9874 126.206 28.9757C126.06 29.0402 125.914 29.1339 125.755 29.2628C125.603 29.3976 125.527 29.5675 125.527 29.7843C125.527 29.9601 125.591 30.1066 125.732 30.2179C125.867 30.3351 126.089 30.3878 126.4 30.3878H127.49C127.894 30.3878 128.269 30.4288 128.615 30.5167C128.96 30.5988 129.259 30.7335 129.517 30.9152C129.769 31.1027 129.968 31.337 130.115 31.6242C130.255 31.9054 130.326 32.2511 130.326 32.6554C130.326 33.1183 130.226 33.5402 130.033 33.921C129.833 34.3019 129.558 34.63 129.201 34.9054C128.843 35.1808 128.41 35.3917 127.9 35.5499C127.39 35.7023 126.816 35.7784 126.183 35.7784C125.269 35.7784 124.572 35.5792 124.097 35.1808C123.623 34.7823 123.382 34.2081 123.382 33.4582C123.382 33.1359 123.441 32.8605 123.552 32.632C123.664 32.3976 123.798 32.1984 123.957 32.0226C124.109 31.8469 124.267 31.7121 124.425 31.6125C124.589 31.5129 124.718 31.4308 124.812 31.3722V31.3371C124.443 31.0617 124.261 30.6632 124.261 30.1418C124.261 29.9132 124.302 29.714 124.39 29.55C124.484 29.3859 124.583 29.2453 124.695 29.1398C124.806 29.0343 124.923 28.9464 125.035 28.882C125.146 28.8175 125.234 28.7707 125.292 28.7472V28.7121C124.853 28.507 124.496 28.1906 124.232 27.757C123.962 27.3234 123.828 26.7667 123.828 26.087C123.828 25.6124 123.91 25.1905 124.062 24.8273C124.214 24.464 124.425 24.1652 124.683 23.9249C124.947 23.6906 125.257 23.5089 125.603 23.3917C125.955 23.2745 126.335 23.2159 126.74 23.2159C127.144 23.2159 127.525 23.2863 127.882 23.4269H130.49L130.29 24.5519ZM126.312 31.7297C126.06 31.7297 125.843 31.7121 125.65 31.6711C125.544 31.7356 125.439 31.8059 125.339 31.8879C125.234 31.9699 125.146 32.0754 125.058 32.1926C124.976 32.3098 124.912 32.4504 124.853 32.6086C124.8 32.7727 124.777 32.9602 124.777 33.1711C124.777 34.091 125.281 34.5481 126.294 34.5481C127.162 34.5481 127.806 34.3781 128.222 34.0383C128.638 33.6985 128.843 33.3117 128.843 32.8723C128.843 32.4563 128.714 32.1574 128.451 31.9875C128.193 31.8176 127.841 31.7297 127.402 31.7297L126.312 31.7297ZM128.222 26.0872C128.222 25.4661 128.076 25.0266 127.783 24.7688C127.49 24.5051 127.15 24.3762 126.757 24.3762C126.341 24.3762 125.984 24.5051 125.685 24.7688C125.386 25.0266 125.24 25.4661 125.24 26.0872C125.24 26.7083 125.386 27.1477 125.685 27.4055C125.984 27.6692 126.33 27.7981 126.722 27.7981C127.138 27.7981 127.49 27.6692 127.783 27.4055C128.076 27.1477 128.222 26.7083 128.222 26.0872ZM66.8511 49.9987H65.5328V49.0319H65.4976C65.4625 49.1022 65.3804 49.2076 65.2632 49.3424C65.1461 49.4772 64.9937 49.6119 64.8062 49.735C64.6246 49.858 64.4019 49.9694 64.1382 50.069C63.8804 50.1627 63.5875 50.2096 63.2652 50.2096C62.8843 50.2096 62.5387 50.151 62.2398 50.0397C61.9351 49.9284 61.6773 49.7467 61.4605 49.4948C61.2496 49.2487 61.0855 48.9205 60.9683 48.5221C60.857 48.1237 60.7984 47.6315 60.7984 47.0514V41.4264H62.2457V46.9459C62.2457 47.6549 62.3629 48.1647 62.5972 48.4693C62.8258 48.774 63.189 48.9264 63.6754 48.9264C64.0914 48.9264 64.4429 48.8209 64.73 48.61C65.0172 48.4049 65.2398 48.1998 65.4039 47.9947V41.4264H66.8511L66.8511 49.9987ZM73.7418 49.9986V44.479C73.7418 43.7525 73.6188 43.231 73.3786 42.9145C73.1325 42.604 72.7633 42.4458 72.2594 42.4458C71.8317 42.4458 71.4743 42.5513 71.193 42.768C70.9059 42.979 70.6774 43.1899 70.5133 43.3891V49.9984H69.0661V41.4262H70.3844V42.393H70.4196C70.4606 42.3227 70.5368 42.2172 70.654 42.0766C70.7712 41.9419 70.9293 41.8129 71.1168 41.684C71.3102 41.561 71.5329 41.4497 71.7965 41.3559C72.0602 41.2622 72.359 41.2153 72.693 41.2153C73.068 41.2153 73.4137 41.268 73.7243 41.3852C74.0348 41.4965 74.2985 41.6782 74.5094 41.9243C74.7262 42.1762 74.8903 42.5044 75.0133 42.8969C75.1305 43.2954 75.1891 43.7876 75.1891 44.3735V49.9985L73.7418 49.9986ZM76.9587 45.8384C76.9587 44.9654 77.07 44.2388 77.2927 43.6588C77.5212 43.0728 77.8142 42.6041 78.1716 42.2466C78.529 41.8892 78.9333 41.6373 79.3845 41.4908C79.8356 41.3384 80.2868 41.2681 80.738 41.2681C81.0134 41.2681 81.2536 41.2857 81.4528 41.3267C81.6579 41.3736 81.8219 41.4205 81.9567 41.479V37.3774L83.3981 37.2134V49.9985H82.0798V49.0844H82.0446C82.0094 49.1547 81.945 49.2543 81.8454 49.3774C81.7516 49.5063 81.6227 49.6293 81.4528 49.7524C81.2887 49.8813 81.0778 49.9867 80.8317 50.0746C80.5798 50.1625 80.2868 50.2094 79.9528 50.2094C79.5485 50.2094 79.1676 50.1274 78.8044 49.9692C78.4411 49.8109 78.1188 49.5531 77.8493 49.2016C77.5739 48.85 77.3571 48.3988 77.1989 47.8422C77.0348 47.2914 76.9587 46.6234 76.9587 45.8383V45.8384ZM80.3454 48.9262C80.5739 48.9262 80.7731 48.897 80.9547 48.8325C81.1305 48.7739 81.2887 48.7036 81.4176 48.6098C81.5465 48.5219 81.6579 48.4282 81.7458 48.3344C81.8395 48.2407 81.904 48.1587 81.9567 48.0825V42.8032C81.8219 42.7154 81.6696 42.645 81.4997 42.5864C81.3239 42.5279 81.1071 42.4986 80.8493 42.4986C80.5153 42.4986 80.1989 42.5513 79.9118 42.6685C79.6188 42.7798 79.3669 42.9673 79.1501 43.231C78.9391 43.4888 78.7692 43.8286 78.6403 44.2505C78.5172 44.6607 78.4528 45.1763 78.4528 45.7798C78.4528 46.3774 78.5055 46.8755 78.6051 47.2739C78.7106 47.6723 78.8454 47.9946 79.027 48.2348C79.2028 48.4809 79.4079 48.6567 79.6364 48.7622C79.859 48.8735 80.0993 48.9262 80.3454 48.9262ZM89.7028 49.9985V37.6763H95.7496L95.6442 38.9126H91.2555V43.4594H95.3043V44.6958H91.2555V49.9986L89.7028 49.9985ZM96.8395 45.7095C96.8395 44.9243 96.9333 44.2505 97.1149 43.6762C97.3024 43.102 97.5485 42.6391 97.8649 42.2758C98.1813 41.9125 98.5446 41.643 98.9547 41.4731C99.3649 41.2973 99.8044 41.2153 100.267 41.2153C100.742 41.2153 101.181 41.2973 101.591 41.4731C101.99 41.643 102.341 41.9125 102.64 42.2758C102.939 42.6391 103.174 43.102 103.349 43.6762C103.519 44.2504 103.607 44.9243 103.607 45.7095C103.607 46.5063 103.519 47.1919 103.338 47.7661C103.162 48.3345 102.91 48.8032 102.599 49.1665C102.283 49.5298 101.914 49.7935 101.498 49.9575C101.082 50.1274 100.642 50.2095 100.179 50.2095C99.7048 50.2095 99.2653 50.1274 98.8551 49.9575C98.4508 49.7934 98.0993 49.5298 97.8063 49.1665C97.5075 48.8032 97.2731 48.3403 97.0973 47.772C96.9274 47.2095 96.8395 46.5181 96.8395 45.7095ZM102.107 45.7095C102.107 44.5669 101.943 43.7407 101.609 43.2192C101.275 42.7035 100.806 42.4457 100.215 42.4457C99.6169 42.4457 99.1598 42.7036 98.8317 43.2192C98.5036 43.7407 98.3395 44.5668 98.3395 45.7095C98.3395 46.852 98.5094 47.6724 98.8376 48.1762C99.1715 48.6743 99.6403 48.9262 100.232 48.9262C100.83 48.9262 101.287 48.6743 101.615 48.1762C101.943 47.6723 102.107 46.852 102.107 45.7095ZM109.191 42.6919C109.156 42.6685 109.08 42.6392 108.963 42.604C108.84 42.5689 108.681 42.5513 108.476 42.5513C108.025 42.5513 107.674 42.6743 107.416 42.9146C107.158 43.1607 106.976 43.4243 106.871 43.7114V49.9986H105.424V41.4263H106.748V42.5865H106.783C106.842 42.4224 106.918 42.2584 107.017 42.0943C107.111 41.9361 107.228 41.7896 107.369 41.6666C107.515 41.5435 107.685 41.4439 107.879 41.3736C108.078 41.3033 108.312 41.2682 108.588 41.2682C108.787 41.2682 108.951 41.2857 109.08 41.3209C109.203 41.3561 109.297 41.3854 109.373 41.4088L109.191 42.6919ZM114.242 43.1608C114.148 43.0495 113.978 42.903 113.726 42.7213C113.474 42.5338 113.152 42.4459 112.742 42.4459C112.361 42.4459 112.074 42.5338 111.869 42.7096C111.67 42.8913 111.57 43.1022 111.57 43.3542C111.57 43.6764 111.658 43.9401 111.845 44.151C112.027 44.3561 112.308 44.5788 112.695 44.819L113.228 45.1413C113.808 45.487 114.271 45.8561 114.599 46.2545C114.933 46.653 115.103 47.1686 115.103 47.8013C115.103 48.4752 114.863 49.0494 114.394 49.5122C113.925 49.9751 113.252 50.2095 112.367 50.2095C112.027 50.2095 111.722 50.1743 111.459 50.104C111.201 50.0279 110.966 49.9458 110.773 49.8521C110.574 49.7583 110.41 49.6529 110.281 49.5415C110.152 49.4243 110.041 49.3247 109.959 49.2251L110.656 48.0825C110.726 48.1587 110.814 48.2407 110.914 48.3345C111.019 48.4282 111.136 48.522 111.283 48.6099C111.423 48.7036 111.587 48.774 111.763 48.8325C111.945 48.897 112.15 48.9263 112.39 48.9263C112.818 48.9263 113.146 48.8267 113.369 48.6392C113.597 48.4458 113.709 48.2173 113.709 47.9419C113.709 47.7368 113.679 47.5669 113.627 47.4146C113.574 47.2681 113.492 47.1333 113.386 47.0161C113.281 46.8931 113.152 46.7818 112.994 46.6763C112.841 46.5708 112.66 46.4478 112.461 46.3189L111.921 45.979C111.388 45.6333 110.966 45.2701 110.668 44.8892C110.363 44.5083 110.211 44.022 110.211 43.4244C110.211 43.1021 110.275 42.8091 110.398 42.5396C110.521 42.2759 110.697 42.0416 110.925 41.8482C111.148 41.649 111.418 41.4966 111.716 41.3853C112.021 41.2681 112.343 41.2154 112.695 41.2154C113.023 41.2154 113.31 41.2447 113.55 41.3091C113.785 41.3795 113.99 41.4615 114.166 41.5611C114.336 41.6607 114.482 41.7662 114.593 41.8658C114.705 41.9654 114.798 42.0533 114.869 42.1236L114.242 43.1608ZM121.566 43.0845C121.525 43.0494 121.472 42.9966 121.396 42.9263C121.314 42.856 121.22 42.7857 121.097 42.7095C120.98 42.6392 120.839 42.5806 120.669 42.522C120.505 42.4693 120.312 42.4459 120.101 42.4459C119.791 42.4459 119.503 42.5044 119.234 42.6158C118.964 42.7271 118.736 42.9087 118.537 43.1607C118.343 43.4068 118.185 43.7349 118.074 44.1334C117.962 44.5318 117.904 45.0123 117.904 45.5865C117.904 46.2193 117.957 46.7466 118.056 47.1744C118.156 47.6021 118.296 47.9478 118.472 48.1998C118.654 48.4576 118.871 48.6392 119.128 48.7564C119.38 48.8677 119.662 48.9263 119.972 48.9263C120.412 48.9263 120.751 48.8443 120.98 48.6919C121.214 48.5396 121.378 48.4107 121.472 48.3169L122.064 49.3189C122.005 49.3892 121.917 49.4712 121.8 49.5767C121.689 49.6763 121.543 49.7759 121.367 49.8697C121.191 49.9634 120.968 50.0455 120.716 50.1099C120.459 50.1744 120.166 50.2095 119.832 50.2095C119.357 50.2095 118.912 50.1334 118.49 49.9752C118.074 49.8228 117.71 49.565 117.406 49.2076C117.095 48.8502 116.849 48.3873 116.673 47.8189C116.492 47.2447 116.404 46.5357 116.404 45.6919C116.404 44.8716 116.509 44.1744 116.726 43.606C116.943 43.0318 117.218 42.5748 117.564 42.2232C117.91 41.8716 118.291 41.6138 118.718 41.4556C119.14 41.2916 119.562 41.2154 119.99 41.2154C120.312 41.2154 120.593 41.2447 120.839 41.3033C121.085 41.3619 121.291 41.438 121.466 41.5259C121.636 41.6138 121.783 41.7076 121.894 41.8131C122.005 41.9127 122.099 42.0005 122.169 42.0709L121.566 43.0845ZM128.363 49.9987V44.4791C128.363 43.7526 128.24 43.2311 128 42.9146C127.753 42.6041 127.384 42.4459 126.88 42.4459C126.453 42.4459 126.095 42.5513 125.808 42.7681C125.527 42.9791 125.298 43.19 125.134 43.3892V49.9985H123.687V37.3774L125.134 37.2133V42.2992H125.169C125.216 42.2289 125.292 42.1351 125.392 42.018C125.492 41.8949 125.632 41.7777 125.808 41.6605C125.99 41.5375 126.206 41.4379 126.464 41.3441C126.716 41.2562 127.021 41.2152 127.361 41.2152C128.111 41.2152 128.708 41.4555 129.148 41.9476C129.587 42.434 129.81 43.2426 129.81 44.3734V49.9984L128.363 49.9987ZM137.966 49.9984H136.648V49.0316H136.607C136.578 49.1019 136.496 49.2074 136.378 49.3422C136.261 49.4769 136.109 49.6117 135.921 49.7348C135.74 49.8578 135.517 49.9691 135.253 50.0687C134.99 50.1625 134.703 50.2094 134.38 50.2094C134 50.2094 133.654 50.1508 133.355 50.0395C133.05 49.9281 132.793 49.7465 132.576 49.4945C132.359 49.2485 132.201 48.9203 132.084 48.5219C131.972 48.1234 131.914 47.6313 131.914 47.0512V41.4262H133.361V46.9457C133.361 47.6547 133.478 48.1645 133.712 48.4691C133.941 48.7738 134.298 48.9262 134.791 48.9262C135.207 48.9262 135.558 48.8207 135.845 48.6097C136.126 48.4047 136.355 48.1996 136.519 47.9945V41.4262H137.966L137.966 49.9984ZM144.857 49.9984V44.4788C144.857 43.7522 144.734 43.2308 144.488 42.9143C144.248 42.6038 143.879 42.4456 143.375 42.4456C142.947 42.4456 142.589 42.551 142.302 42.7678C142.021 42.9787 141.793 43.1897 141.629 43.3889V49.9982H140.181V41.426H141.5V42.3928H141.535C141.576 42.3225 141.652 42.217 141.769 42.0764C141.886 41.9416 142.044 41.8127 142.232 41.6838C142.425 41.5608 142.648 41.4494 142.912 41.3557C143.175 41.2619 143.468 41.2151 143.802 41.2151C144.183 41.2151 144.529 41.2678 144.839 41.385C145.15 41.4963 145.408 41.6779 145.625 41.9241C145.841 42.176 146.005 42.5041 146.123 42.8967C146.24 43.2951 146.304 43.7873 146.304 44.3733V49.9983L144.857 49.9984ZM154.601 42.5511H153.535C153.804 43.0023 153.945 43.5179 153.945 44.0862C153.945 44.5373 153.869 44.9475 153.722 45.3108C153.57 45.6741 153.365 45.9788 153.095 46.2307C152.826 46.4768 152.509 46.6702 152.152 46.7991C151.789 46.9338 151.396 46.9983 150.98 46.9983H150.746C150.675 46.9983 150.599 46.9866 150.517 46.9749C150.37 47.0393 150.224 47.1331 150.072 47.262C149.914 47.3967 149.837 47.5667 149.837 47.7835C149.837 47.9592 149.908 48.1057 150.042 48.217C150.177 48.3342 150.4 48.387 150.71 48.387H151.8C152.205 48.387 152.58 48.428 152.925 48.5159C153.271 48.5979 153.57 48.7327 153.828 48.9143C154.086 49.1018 154.285 49.3362 154.425 49.6233C154.566 49.9045 154.636 50.2503 154.636 50.6545C154.636 51.1174 154.543 51.5393 154.343 51.9202C154.15 52.301 153.869 52.6292 153.517 52.9045C153.16 53.1799 152.72 53.3909 152.21 53.5491C151.701 53.7014 151.127 53.7776 150.5 53.7776C149.58 53.7776 148.888 53.5784 148.408 53.1799C147.933 52.7815 147.693 52.2073 147.693 51.4573C147.693 51.1351 147.752 50.8597 147.863 50.6312C147.98 50.3968 148.109 50.1976 148.267 50.0218C148.42 49.846 148.578 49.7112 148.742 49.6116C148.9 49.512 149.029 49.43 149.123 49.3714V49.3362C148.754 49.0608 148.572 48.6624 148.572 48.1409C148.572 47.9124 148.613 47.7132 148.707 47.5491C148.795 47.385 148.894 47.2444 149.005 47.139C149.117 47.0335 149.234 46.9456 149.345 46.8811C149.457 46.8167 149.545 46.7698 149.603 46.7464V46.7112C149.164 46.5061 148.812 46.1897 148.543 45.7561C148.273 45.3225 148.144 44.7659 148.144 44.0862C148.144 43.6116 148.22 43.1897 148.373 42.8264C148.531 42.4631 148.736 42.1643 149 41.9241C149.263 41.6897 149.568 41.5081 149.92 41.3909C150.271 41.2737 150.646 41.2151 151.05 41.2151C151.455 41.2151 151.836 41.2854 152.193 41.426H154.8L154.601 42.5511ZM150.623 49.7288C150.371 49.7288 150.154 49.7113 149.96 49.6702C149.855 49.7347 149.75 49.805 149.65 49.887C149.55 49.9691 149.457 50.0745 149.375 50.1917C149.287 50.3089 149.222 50.4495 149.169 50.6077C149.111 50.7718 149.087 50.9593 149.087 51.1702C149.087 52.0902 149.591 52.5472 150.605 52.5472C151.472 52.5472 152.117 52.3773 152.533 52.0374C152.949 51.6976 153.16 51.3109 153.16 50.8714C153.16 50.4554 153.025 50.1566 152.767 49.9867C152.503 49.8168 152.152 49.7288 151.712 49.7288L150.623 49.7288ZM152.533 44.0863C152.533 43.4652 152.386 43.0258 152.093 42.7679C151.8 42.5043 151.461 42.3754 151.068 42.3754C150.652 42.3754 150.294 42.5043 149.996 42.7679C149.703 43.0258 149.55 43.4652 149.55 44.0863C149.55 44.7074 149.703 45.1468 149.996 45.4047C150.294 45.6683 150.64 45.7972 151.033 45.7972C151.449 45.7972 151.8 45.6683 152.093 45.4047C152.386 45.1468 152.533 44.7074 152.533 44.0863Z" fill="black"/>
<path d="M47.75 61.9937H50V91.9937H44.75V61.9937" fill="#F5CF00"/>
<path d="M47.75 31.8472H50V61.9942H44.75V31.8472" fill="#E6000C"/>
<path d="M31.0865 12.4819C32.6216 14.9135 33.8228 14.8726 35.6393 14.8726C34.1393 13.7183 33.1431 12.2476 32.6685 11.4917L29.8677 7.00344C29.5923 5.61477 28.8775 4.32564 27.8052 3.35889C28.1626 3.22413 28.4615 3.07764 28.6431 2.94288C26.8149 2.94288 24.9986 2.01124 23.9966 2.01124C23.3579 2.01124 22.9419 2.39211 22.9419 2.90187C22.9829 3.46437 23.5688 4.04445 24.6411 4.04445C24.8872 4.04445 25.1977 4.00929 25.5376 3.95656C26.1235 4.76515 26.5922 5.49751 26.5922 6.54646C26.5922 8.50936 24.2426 10.0445 21.8696 10.0445C21.7349 10.0445 21.606 10.0386 21.4712 10.0269C21.2603 9.54055 20.5454 8.72025 20.5454 7.79443C20.5454 6.22993 21.565 4.95268 21.565 3.40573C21.565 2.45065 21.0903 1.85293 20.9146 1.60693C21.2075 1.3374 21.5239 1.00342 21.5943 0.774899C21.4302 0.845204 21.2251 0.856934 20.9321 0.856934C19.7954 0.856934 18.8696 0.558105 17.9672 0.558105C17.4516 0.558105 17.311 0.722175 17.311 0.874515C17.311 0.927255 17.3227 0.985845 17.3344 1.01514C17.1469 0.933105 16.9653 0.886231 16.7485 0.845221C16.4848 0.798346 16.1977 0.769049 15.893 0.769049C14.7915 0.769049 14.3989 1.23193 14.3989 1.62451C14.3989 1.9585 14.6626 2.56788 14.9614 3.03076C15.3891 2.81983 15.9048 2.67335 16.1391 2.67335C16.7192 2.67335 17.2407 3.22998 17.5161 3.88623C17.1235 3.93311 17.0473 3.95068 16.6489 3.95068C15.5825 3.95068 14.856 3.56397 14.7036 3.56397C14.6919 3.56397 14.6626 3.57567 14.6626 3.59913C14.6626 3.74562 14.9672 4.14405 15.5649 4.36085C16.3501 4.64796 17.5278 4.771 17.727 4.8003C17.727 4.83546 17.5278 5.21046 17.3051 5.28076C17.2583 5.29246 17.2172 5.29835 17.1645 5.28661C16.3442 5.12255 16.1098 5.05224 15.0728 4.65966C15.0376 4.64796 15.02 4.66551 15.02 4.70067C15.02 5.11083 16.0864 6.02488 17.0416 6.37062C16.2447 7.39015 15.2486 8.43312 14.774 10.0269C14.6451 10.0386 14.5162 10.0444 14.3814 10.0444C12.0084 10.0444 9.65883 8.50935 9.65883 6.54645C9.65883 5.49762 10.1276 4.7652 10.7135 3.95655C11.0534 4.00929 11.3639 4.04443 11.61 4.04443C12.6823 4.04443 13.2683 3.46436 13.3092 2.90186C13.3092 2.3921 12.8932 2.01123 12.2487 2.01123C11.2526 2.01123 9.43616 2.94287 7.60211 2.94287C7.78374 3.07763 8.08844 3.22412 8.44586 3.35888C7.3736 4.32567 6.65876 5.61472 6.38336 7.00342L3.57671 11.4917C3.10796 12.2476 2.11187 13.7183 0.605957 14.8726C2.42231 14.8726 3.62936 14.9136 5.16461 12.4819L6.60015 10.1791C6.70562 10.4779 6.84039 10.7709 6.99273 11.058L4.13343 15.6342C3.65297 16.39 2.66859 17.8549 1.16268 19.0092C2.97903 19.0092 4.18023 19.0502 5.71548 16.6245L8.17638 12.6811C8.36388 12.8803 8.55725 13.0737 8.76231 13.2553L5.28771 18.8158C4.80725 19.5776 3.82872 21.0366 2.31696 22.1908C4.13331 22.1908 5.33451 22.2377 6.86976 19.8061L10.2565 14.3862C10.4791 14.5268 10.7076 14.6616 10.942 14.7905L6.81116 21.4058C6.33069 22.1675 5.35217 23.6207 3.84041 24.7808C5.65676 24.7808 6.85796 24.8218 8.39321 22.3961L12.6529 15.5816C12.9049 15.6812 13.1568 15.7691 13.4205 15.857L8.60999 23.5562C8.14124 24.3062 7.13343 25.7828 5.63924 26.9312C7.45559 26.9312 8.65679 26.9722 10.192 24.5465L15.319 16.3374C15.3718 16.3491 15.4245 16.355 15.4772 16.3667C15.6179 16.812 15.7116 17.2222 15.7116 17.6382C15.7116 20.2164 14.0183 22.4898 11.9909 24.2475C12.1198 24.3061 12.3424 24.3295 12.5534 24.3295C12.9752 24.3295 13.2448 24.3061 13.4323 24.271C12.9635 25.3374 11.9557 26.7202 11.446 27.4351C10.778 27.3179 9.81128 27.2241 9.17843 27.2241C8.51631 27.2241 8.44014 27.6108 8.44014 27.9565C8.44014 28.5601 8.72139 29.0347 9.04952 29.3042C9.17256 28.9937 9.41865 28.5835 10.6433 28.5835C10.6667 28.5835 10.7077 28.5894 10.7663 28.5894C10.4089 28.9878 9.28976 29.896 9.28976 30.6226C9.28976 31.1089 9.8171 31.8296 10.5144 31.8296C10.4734 31.6773 10.4792 31.5308 10.4792 31.4253C10.4792 30.8335 11.0066 30.1421 11.446 29.6616C11.4343 29.8023 11.4402 29.7906 11.4402 29.9546C11.4402 31.355 11.5691 31.9937 12.4538 31.9937C12.8874 31.9937 13.1862 31.7593 13.2917 31.6832C12.7116 31.1558 12.6882 30.7398 12.6882 29.9547V29.275C12.6941 29.0992 12.6882 28.859 12.6589 28.6891C12.9753 28.6481 13.1042 28.6481 13.3503 28.6481C13.3503 28.6481 14.6101 28.5485 14.9148 29.2047C15.2547 28.8883 15.7527 28.4489 15.7527 27.9567C15.7527 27.6344 15.6004 27.2711 14.95 27.2711C14.7039 27.2711 13.9304 27.4235 13.2859 27.4235C13.4558 27.0368 14.2292 25.9059 14.903 25.0856C15.0026 25.402 15.1608 25.7477 15.5124 26.0289C15.5593 25.5016 15.8698 23.8317 16.696 22.8531C16.7897 23.5153 16.9186 24.1891 16.9186 25.6188C16.9186 29.0876 16.0866 31.6481 14.317 32.1404C14.5455 32.5388 15.0319 32.9021 15.5417 32.9021C16.1862 32.9021 16.5377 32.1697 16.901 31.4783C17.0885 31.988 17.6042 33.2361 18.1256 33.2361C18.6413 33.2361 19.1628 31.9881 19.3503 31.4783C19.7077 32.1697 20.0592 32.9021 20.7096 32.9021C21.2135 32.9021 21.7057 32.5388 21.9342 32.1404C20.1647 31.6482 19.3268 29.0876 19.3268 25.6188C19.3268 24.1892 19.4557 23.5154 19.5553 22.8531C20.3756 23.8316 20.6862 25.5015 20.733 26.0289C21.0846 25.7477 21.2487 25.402 21.3483 25.0856C22.0163 25.9059 22.7897 27.0368 22.9654 27.4235C22.315 27.4235 21.5416 27.2711 21.3013 27.2711C20.651 27.2711 20.4986 27.6344 20.4986 27.9567C20.4986 28.4489 20.9966 28.8883 21.3365 29.2047C21.6412 28.5485 22.901 28.6481 22.901 28.6481C23.1412 28.6481 23.2701 28.6481 23.5924 28.6891C23.5631 28.859 23.5572 29.0993 23.5572 29.275C23.5631 29.5504 23.5631 29.7496 23.5631 29.9547C23.5631 30.7399 23.5338 31.1559 22.9596 31.6832C23.065 31.7593 23.3639 31.9937 23.7975 31.9937C24.6822 31.9937 24.8111 31.355 24.8111 29.9546C24.8111 29.7905 24.817 29.8023 24.8053 29.6616C25.2447 30.1421 25.7721 30.8335 25.7721 31.4253C25.7721 31.5308 25.7721 31.6773 25.7311 31.8296C26.4342 31.8296 26.9615 31.1089 26.9615 30.6226C26.9615 29.896 25.8424 28.9879 25.4791 28.5894C25.5377 28.5894 25.5846 28.5835 25.6022 28.5835C26.8326 28.5835 27.0787 28.9937 27.2017 29.3042C27.5299 29.0347 27.8111 28.5601 27.8111 27.9565C27.8111 27.6108 27.735 27.2241 27.0728 27.2241C26.44 27.2241 25.4732 27.3179 24.8053 27.4351C24.2955 26.7202 23.2877 25.3375 22.8131 24.271C23.0065 24.3061 23.276 24.3295 23.6921 24.3295C23.903 24.3295 24.1315 24.3061 24.2604 24.2475C22.2272 22.4897 20.5338 20.2163 20.5338 17.6382C20.5338 17.2222 20.6334 16.812 20.7741 16.3667C20.8268 16.355 20.8795 16.3491 20.9323 16.3374L26.0593 24.5465C27.5885 26.9723 28.7956 26.9312 30.6061 26.9312C29.1178 25.7827 28.1099 24.3062 27.6412 23.5562L22.8307 15.857C23.0885 15.7691 23.3463 15.6812 23.5982 15.5816L27.8521 22.3961C29.393 24.8219 30.5942 24.7808 32.4107 24.7808C30.899 23.6206 29.9146 22.1675 29.44 21.4058L25.3091 14.7905C25.5377 14.6616 25.772 14.5268 25.9947 14.3862L29.3814 19.8061C30.9165 22.2378 32.1177 22.1908 33.9342 22.1908C32.4225 21.0366 31.4439 19.5775 30.9634 18.8158L27.4888 13.2553C27.6939 13.0737 27.8873 12.8803 28.0689 12.6811L30.5357 16.6245C32.0708 19.0503 33.272 19.0092 35.0885 19.0092C33.5768 17.8549 32.5923 16.39 32.1177 15.6342L29.2584 11.058C29.4108 10.7709 29.5397 10.4779 29.651 10.1791L31.0865 12.4819ZM8.129 7.21417C8.129 5.50327 9.37118 4.14968 9.81065 3.76883C9.91611 3.79227 10.0216 3.82156 10.1212 3.84499C9.65831 4.40749 8.83799 5.36255 8.83799 6.6224C8.83799 9.12439 11.5098 11.2982 14.5392 11.2982C14.5157 11.5091 14.5099 11.7376 14.5099 11.9662C14.5099 12.3353 14.5275 12.681 14.5626 13.0033C11.1407 12.9857 8.12898 10.2083 8.12898 7.21417H8.129ZM12.7637 27.7222L12.7461 27.7808H12.8047C13.7656 27.7808 14.2344 27.7105 14.545 27.6694C14.7091 27.646 14.8262 27.6284 14.9493 27.6284C15.1954 27.6284 15.3887 27.6519 15.3887 27.9565C15.3887 28.1616 15.1485 28.4897 14.9141 28.6772C14.5626 28.3433 14.0704 28.2788 13.3496 28.2788C13.0156 28.2788 12.5703 28.3374 12.336 28.3726L12.3008 28.3784L12.2598 28.3843L12.2715 28.4956C12.3008 28.6948 12.3301 28.9409 12.3301 29.2749V29.5796L12.3242 29.9546C12.3242 30.769 12.4356 31.2378 12.7227 31.5893C12.6465 31.6186 12.5293 31.642 12.4531 31.642C11.9434 31.642 11.7969 31.4194 11.7969 29.9545C11.7969 29.6616 11.7793 29.392 11.7734 29.2045L11.7559 28.935L11.6914 28.9819C10.9414 29.5561 10.1622 30.5815 10.1211 31.349C9.89255 31.2025 9.64644 30.8744 9.64644 30.6225C9.64644 30.2064 10.2734 29.5795 11.0058 28.8471L11.4746 28.3783L11.3398 28.3431C11.1816 28.3021 10.8886 28.2259 10.6425 28.2259C9.82809 28.2259 9.31247 28.3842 8.996 28.724C8.88467 28.5599 8.79092 28.1791 8.79092 27.9564C8.79092 27.8099 8.82021 27.7103 8.8788 27.6517C8.94911 27.5814 9.06044 27.5814 9.15419 27.5814H9.17763C10.08 27.5814 11.1522 27.7455 11.5742 27.8099L11.5976 27.8158L11.6152 27.7982C11.6855 27.6986 13.4023 25.4135 13.8477 24.2006C13.9531 24.1596 14.041 24.1303 14.2227 24.1303C14.5625 24.1303 14.6504 24.3588 14.75 24.7104C13.6777 26.0112 13.0097 27.0249 12.7637 27.7221L12.7637 27.7222ZM22.0274 24.1303C22.209 24.1303 22.2911 24.1596 22.3965 24.2006C22.8419 25.4135 24.5586 27.6986 24.6348 27.7982L24.6465 27.8158L24.6758 27.81C25.0918 27.7455 26.17 27.5815 27.0724 27.5815H27.09C27.1896 27.5815 27.3009 27.5815 27.3712 27.6518C27.4298 27.7104 27.4591 27.81 27.4591 27.9564C27.4591 28.1791 27.3654 28.56 27.2482 28.724C26.9318 28.3842 26.422 28.226 25.6016 28.226C25.3555 28.226 25.0684 28.3021 24.9102 28.3432L24.8458 28.3549L24.7696 28.3783L25.2442 28.8471C25.9708 29.5795 26.6036 30.2064 26.6036 30.6225C26.6036 30.8744 26.3575 31.2025 26.129 31.349C26.0821 30.5815 25.3086 29.5561 24.5528 28.9819L24.4883 28.935L24.4766 29.2045C24.4649 29.392 24.4532 29.6616 24.4532 29.9545C24.4532 31.4194 24.3008 31.642 23.7969 31.642C23.7207 31.642 23.5977 31.6186 23.5274 31.5893C23.8086 31.2378 23.9258 30.769 23.9258 29.9546L23.92 29.5796L23.9141 29.2749C23.9141 28.9409 23.9493 28.6948 23.9786 28.4956L23.9903 28.3843L23.9141 28.3726C23.6739 28.3374 23.2344 28.2789 22.9004 28.2789C22.1797 28.2789 21.6875 28.3433 21.3359 28.6773C21.1016 28.4898 20.8613 28.1617 20.8613 27.9566C20.8613 27.6519 21.0488 27.6285 21.3008 27.6285C21.4238 27.6285 21.541 27.646 21.7051 27.6695C22.0156 27.7105 22.4785 27.7808 23.4454 27.7808H23.504L23.4805 27.7222C23.2403 27.025 22.5723 26.0113 21.5001 24.7105C21.5938 24.3589 21.6876 24.1304 22.0274 24.1304V24.1303ZM18.0548 4.17894C17.9435 3.73362 17.715 3.28245 17.4278 2.93676C17.1642 2.62621 16.7247 2.25708 16.1388 2.25708C15.8692 2.25708 15.4181 2.38012 15.1368 2.50317C15.0255 2.3098 14.8204 1.8352 14.8204 1.62426C14.8204 1.40746 15.1895 1.1848 15.8927 1.1848C17.4395 1.1848 18.3594 1.88793 18.3594 3.0598C18.3594 3.46996 18.2012 3.85081 18.0547 4.17894H18.0548ZM18.7461 2.65554C18.6934 2.32155 18.5645 2.02272 18.3711 1.76491C18.3828 1.46608 18.5059 1.17312 18.9981 1.41335C18.7286 1.68288 18.9336 2.15748 18.9336 2.15748C18.9336 2.15748 19.4727 1.91139 19.3614 1.55397C20.1641 1.74734 19.5899 2.81959 18.7461 2.65554ZM21.7578 13.0031C21.7989 12.6691 21.8223 12.3235 21.8223 11.966C21.8223 11.7727 21.8223 11.55 21.7989 11.2922C24.7872 11.2512 27.4122 9.10084 27.4122 6.62224C27.4122 5.36248 26.5918 4.40735 26.1231 3.84485C26.2286 3.8214 26.334 3.7921 26.4395 3.76867C26.8789 4.14954 28.1211 5.50297 28.1211 7.21402C28.1211 10.1848 25.1504 12.9445 21.7578 13.0031" fill="black"/>
<path d="M50 2V32H44.75V2" fill="black"/>
</svg>
